<?xml version="1.0" encoding="utf-8"?>
<!-- Generator: Adobe Illustrator 18.1.0, SVG Export Plug-In . SVG Version: 6.00 Build 0)  -->
<svg version="1.1" id="Layer_1" xmlns="http://www.w3.org/2000/svg" xmlns:xlink="http://www.w3.org/1999/xlink" x="0px" y="0px"
	 viewBox="0 0 64 64" enable-background="new 0 0 64 64" xml:space="preserve">
<g>
	<rect x="6" y="18" fill="#FFAE00" width="50" height="46"/>
	<rect x="4" y="16" fill="#9E2F30" width="54" height="2"/>
	<rect x="6" y="38" fill="#9E2F30" width="50" height="2"/>
	<rect x="6" y="62" fill="#9E2F30" width="50" height="2"/>
	<path fill="#FAEC94" d="M44,60H18V16c0-1.1,0.9-2,2-2h22c1.1,0,2,0.9,2,2V60z"/>
	<path opacity="0.3" fill="#FFFFFF" d="M16,36H8V24c0-2.2,1.8-4,4-4h0c2.2,0,4,1.8,4,4V36z"/>
	<path opacity="0.3" fill="#FFFFFF" d="M54,36h-8V24c0-2.2,1.8-4,4-4h0c2.2,0,4,1.8,4,4V36z"/>
	<path opacity="0.5" fill="#FFFFFF" d="M42,34H20V22c0-2.2,1.8-4,4-4h14c2.2,0,4,1.8,4,4V34z"/>
	<path opacity="0.3" fill="#FFFFFF" d="M16,58H8V46c0-2.2,1.8-4,4-4h0c2.2,0,4,1.8,4,4V58z"/>
	<path opacity="0.3" fill="#FFFFFF" d="M54,58h-8V46c0-2.2,1.8-4,4-4h0c2.2,0,4,1.8,4,4V58z"/>
	<path fill="#5997CF" d="M26,32h-4V22c0-1.1,0.9-2,2-2h0c1.1,0,2,0.9,2,2V32z"/>
	<rect x="22" y="30" opacity="0.2" width="4" height="2"/>
	<path fill="#5997CF" d="M40,32h-4V22c0-1.1,0.9-2,2-2h0c1.1,0,2,0.9,2,2V32z"/>
	<rect x="36" y="30" opacity="0.2" width="4" height="2"/>
	<path fill="#5997CF" d="M52,34h-4V24c0-1.1,0.9-2,2-2h0c1.1,0,2,0.9,2,2V34z"/>
	<rect x="48" y="32" opacity="0.2" width="4" height="2"/>
	<path fill="#5997CF" d="M14,34h-4V24c0-1.1,0.9-2,2-2h0c1.1,0,2,0.9,2,2V34z"/>
	<rect x="10" y="32" opacity="0.2" width="4" height="2"/>
	<path fill="#5997CF" d="M52,56h-4V46c0-1.1,0.9-2,2-2h0c1.1,0,2,0.9,2,2V56z"/>
	<rect x="48" y="54" opacity="0.2" width="4" height="2"/>
	<path fill="#5997CF" d="M14,56h-4V46c0-1.1,0.9-2,2-2h0c1.1,0,2,0.9,2,2V56z"/>
	<rect x="10" y="54" opacity="0.2" width="4" height="2"/>
	<path fill="#5997CF" d="M34,32h-6V22c0-1.1,0.9-2,2-2h2c1.1,0,2,0.9,2,2V32z"/>
	<rect x="28" y="30" opacity="0.2" width="6" height="2"/>
	<rect x="18" y="36" fill="#BF4851" width="26" height="2"/>
	<path fill="#FFAE00" d="M44,14H18v2h2v1c0,0.6,0.4,1,1,1s1-0.4,1-1v-1h2v1c0,0.6,0.4,1,1,1s1-0.4,1-1v-1h2v1c0,0.6,0.4,1,1,1
		s1-0.4,1-1v-1h2v1c0,0.6,0.4,1,1,1s1-0.4,1-1v-1h2v1c0,0.6,0.4,1,1,1s1-0.4,1-1v-1h2v1c0,0.6,0.4,1,1,1s1-0.4,1-1v-1h2V14z"/>
	<path opacity="0.5" fill="#FFFFFF" d="M38,58H24V47c0-3.9,3.1-7,7-7h0c3.9,0,7,3.1,7,7V58z"/>
	<path fill="#BF4851" d="M31,42L31,42c2.8,0,5,2.2,5,5v11H26V47C26,44.2,28.2,42,31,42z"/>
	<path fill="#9E2F30" d="M33,52h-4c-0.6,0-1-0.4-1-1l0,0c0-0.6,0.4-1,1-1h4c0.6,0,1,0.4,1,1l0,0C34,51.6,33.6,52,33,52z"/>
	<rect x="30" y="42" fill="#9E2F30" width="2" height="16"/>
	<polygon fill="#A3A4A6" points="44,62 44,60 40,60 40,58 22,58 22,60 18,60 18,62 14,62 14,64 48,64 48,62 	"/>
	<polygon fill="#F2A500" points="27.9,10.3 31,8.8 34.1,10.3 33.6,6.9 36,4.5 32.6,3.9 31,0.8 29.4,3.9 26,4.5 28.4,6.9 	"/>
	<polygon fill="#F2A500" points="17.9,11.3 21,9.8 24.1,11.3 23.6,7.9 26,5.5 22.6,4.9 21,1.8 19.4,4.9 16,5.5 18.4,7.9 	"/>
	<polygon fill="#F2A500" points="7.9,13.3 11,11.8 14.1,13.3 13.6,9.9 16,7.5 12.6,6.9 11,3.8 9.4,6.9 6,7.5 8.4,9.9 	"/>
	<polygon fill="#F2A500" points="38.4,7.9 37.9,11.3 41,9.8 44.1,11.3 43.6,7.9 46,5.5 42.6,4.9 41,1.8 39.4,4.9 36,5.5 	"/>
	<polygon fill="#F2A500" points="48.4,9.9 47.9,13.3 51,11.8 54.1,13.3 53.6,9.9 56,7.5 52.6,6.9 51,3.8 49.4,6.9 46,7.5 	"/>
	<rect x="16" y="12" fill="#BF4851" width="30" height="2"/>
</g>
</svg>
